<?xml version="1.0" encoding="UTF-8" standalone="no"?>
<!-- Created with Inkscape (http://www.inkscape.org/) -->

<svg
   xmlns:dc="http://purl.org/dc/elements/1.1/"
   xmlns:cc="http://creativecommons.org/ns#"
   xmlns:rdf="http://www.w3.org/1999/02/22-rdf-syntax-ns#"
   xmlns:svg="http://www.w3.org/2000/svg"
   xmlns="http://www.w3.org/2000/svg"
   xmlns:sodipodi="http://sodipodi.sourceforge.net/DTD/sodipodi-0.dtd"
   xmlns:inkscape="http://www.inkscape.org/namespaces/inkscape"
   width="210mm"
   height="297mm"
   viewBox="0 0 210 297"
   version="1.1"
   id="svg8"
   inkscape:version="0.92.4 (5da689c313, 2019-01-14)"
   sodipodi:docname="noogen_logo.svg">
  <defs
     id="defs2">
    <marker
       inkscape:stockid="Arrow1Lstart"
       orient="auto"
       refY="0.0"
       refX="0.0"
       id="marker1322"
       style="overflow:visible"
       inkscape:isstock="true">
      <path
         id="path1320"
         d="M 0.0,0.0 L 5.0,-5.0 L -12.5,0.0 L 5.0,5.0 L 0.0,0.0 z "
         style="fill-rule:evenodd;stroke:none;stroke-width:1pt;stroke-opacity:1;fill:#00006e;fill-opacity:1"
         transform="scale(0.8) translate(12.5,0)" />
    </marker>
    <marker
       inkscape:stockid="Arrow1Lstart"
       orient="auto"
       refY="0.0"
       refX="0.0"
       id="marker1300"
       style="overflow:visible"
       inkscape:isstock="true">
      <path
         id="path1298"
         d="M 0.0,0.0 L 5.0,-5.0 L -12.5,0.0 L 5.0,5.0 L 0.0,0.0 z "
         style="fill-rule:evenodd;stroke:none;stroke-width:1pt;stroke-opacity:1;fill:#00006e;fill-opacity:1"
         transform="scale(0.8) translate(12.5,0)" />
    </marker>
    <marker
       inkscape:stockid="Arrow1Lstart"
       orient="auto"
       refY="0.0"
       refX="0.0"
       id="Arrow1Lstart"
       style="overflow:visible"
       inkscape:isstock="true">
      <path
         id="path1022"
         d="M 0.0,0.0 L 5.0,-5.0 L -12.5,0.0 L 5.0,5.0 L 0.0,0.0 z "
         style="fill-rule:evenodd;stroke:none;stroke-width:1pt;stroke-opacity:1;fill:#00006e;fill-opacity:1"
         transform="scale(0.8) translate(12.5,0)" />
    </marker>
  </defs>
  <sodipodi:namedview
     id="base"
     pagecolor="#ffffff"
     bordercolor="#666666"
     borderopacity="1.0"
     inkscape:pageopacity="0.0"
     inkscape:pageshadow="2"
     inkscape:zoom="0.45254834"
     inkscape:cx="-269.5096"
     inkscape:cy="601.11124"
     inkscape:document-units="mm"
     inkscape:current-layer="layer1"
     showgrid="false"
     inkscape:window-width="1920"
     inkscape:window-height="1003"
     inkscape:window-x="0"
     inkscape:window-y="0"
     inkscape:window-maximized="1"
     showguides="false"
     inkscape:snap-global="true"
     inkscape:snap-midpoints="true"
     inkscape:snap-smooth-nodes="true" />
  <metadata
     id="metadata5">
    <rdf:RDF>
      <cc:Work
         rdf:about="">
        <dc:format>image/svg+xml</dc:format>
        <dc:type
           rdf:resource="http://purl.org/dc/dcmitype/StillImage" />
        <dc:title />
      </cc:Work>
    </rdf:RDF>
  </metadata>
  <g
     inkscape:label="Layer 1"
     inkscape:groupmode="layer"
     id="layer1">
    <flowRoot
       xml:space="preserve"
       id="flowRoot965"
       style="fill:black;fill-opacity:1;stroke:none;font-family:sans-serif;font-style:normal;font-weight:normal;font-size:40px;line-height:1.25;letter-spacing:0px;word-spacing:0px"><flowRegion
         id="flowRegion967"><rect
           id="rect969"
           width="20.83692"
           height="84.801422"
           x="361.01175"
           y="789.61353" /></flowRegion><flowPara
         id="flowPara971" /></flowRoot>    <g
       id="g1163"
       transform="translate(8.1851293,7.0158251)">
      <path
         inkscape:export-ydpi="200"
         inkscape:export-xdpi="200"
         inkscape:connector-curvature="0"
         id="path30-5-36-3-7-6-6-6-6-6-7-6"
         d="m 95.627395,29.995114 c -1.408822,0.0861 -1.528498,0.12655 -1.83038,1.11103 l -1.057817,3.50314 c -0.211209,0.62193 -0.323586,0.879 -0.766879,1.09606 -0.48537,0.23477 -0.570376,0.20873 -1.215429,0.41757 -0.496742,0.16518 -0.908484,0.31163 -1.228865,0.37568 -0.48622,0.085 -0.728088,-0.0572 -1.264522,-0.43616 l -2.915068,-2.21226 c -0.822905,-0.61905 -0.943813,-0.58124 -2.134237,0.17724 -0.106727,0.0738 -0.209553,0.15253 -0.314709,0.22894 -0.201602,0.1415 -0.41325,0.29766 -0.589111,0.42786 -0.105166,0.0764 -0.212021,0.15028 -0.315227,0.22894 -1.089263,0.89782 -1.1623,1.00114 -0.827856,1.97507 l 1.203544,3.45561 c 0.194691,0.6273 0.254852,0.9017 0.02377,1.3379 -0.254719,0.47519 -0.338818,0.50405 -0.737939,1.05214 -0.411091,0.57523 -0.40872,0.63428 -0.77308,1.02679 -0.343401,0.35454 -0.622777,0.38198 -1.279508,0.39069 l -3.658691,-0.0765 c -1.029599,-0.0172 -1.104889,0.0846 -1.622123,1.39784 -0.04293,0.12245 -0.08026,0.24644 -0.120406,0.37002 -0.06595,0.1923 -0.127721,0.38865 -0.185519,0.57153 h 12.629721 a 12.011274,12.011274 0 0 1 9.73274,-4.99195 12.011274,12.011274 0 0 1 9.728086,4.99195 h 12.6354 c -0.0621,-0.19632 -0.12833,-0.39881 -0.18551,-0.56946 -0.0401,-0.12362 -0.0775,-0.24755 -0.12041,-0.37 -0.51722,-1.31331 -0.59252,-1.41496 -1.62212,-1.39787 l -3.65869,0.0765 c -0.65676,-0.009 -0.93609,-0.0361 -1.27951,-0.39066 -0.37255,-0.38838 -0.37529,-0.4785 -0.77101,-1.02475 -0.3085,-0.41977 -0.5787,-0.77013 -0.73846,-1.05471 -0.23105,-0.43617 -0.17041,-0.71009 0.0243,-1.33739 l 1.20303,-3.45612 c 0.33438,-0.97375 0.26132,-1.07723 -0.82734,-1.97456 h -0.001 c -0.10299,-0.0786 -0.20924,-0.15216 -0.3142,-0.22842 -0.1969,-0.148 -0.4109,-0.30088 -0.58911,-0.42788 h -5.2e-4 c -0.10506,-0.0764 -0.20808,-0.15513 -0.3147,-0.22892 h -5.2e-4 c -1.19018,-0.75832 -1.31087,-0.79573 -2.13372,-0.17674 l -2.91455,2.21229 c -0.53643,0.37901 -0.77882,0.52109 -1.26504,0.43614 -0.53041,-0.0954 -0.5841,-0.16621 -1.22783,-0.37621 -0.49977,-0.15833 -0.91952,-0.28202 -1.21647,-0.41858 -0.44329,-0.21706 -0.55567,-0.47413 -0.76687,-1.09606 l -1.057823,-3.50313 c -0.301884,-0.98449 -0.42156,-1.02497 -1.830379,-1.11104 h -5.16e-4 c -0.129704,-0.003 -0.259186,0 -0.389123,0 -0.24629,-0.004 -0.509302,-0.003 -0.728123,0 -0.129936,0 -0.259421,-0.003 -0.389122,0 z"
         style="fill:#00006e;fill-opacity:1;stroke-width:8.94423962;stroke-linecap:round" />
      <text
         inkscape:export-ydpi="200"
         inkscape:export-xdpi="200"
         id="text817-6-3-0-8-7-2-09-1"
         y="60.364037"
         x="60.049721"
         style="font-style:normal;font-weight:normal;font-size:10.58333302px;line-height:1.25;font-family:sans-serif;letter-spacing:0px;word-spacing:0px;fill:#000000;fill-opacity:1;stroke:#000000;stroke-width:0.1;stroke-miterlimit:4;stroke-dasharray:none;stroke-opacity:1"
         xml:space="preserve"><tspan
           style="font-style:oblique;font-variant:normal;font-weight:bold;font-stretch:normal;font-size:19.75555611px;font-family:Loma;-inkscape-font-specification:'Loma Bold Oblique';letter-spacing:1.05833328px;fill:#00006e;fill-opacity:1;stroke:#00006e;stroke-width:0.1;stroke-miterlimit:4;stroke-dasharray:none;stroke-opacity:1"
           y="60.364037"
           x="60.049721"
           id="tspan815-0-6-7-4-5-7-3-8"
           sodipodi:role="line">noogen</tspan></text>
      <text
         inkscape:export-ydpi="200"
         inkscape:export-xdpi="200"
         id="text817-6-3-0-8-7-2-0-6-7"
         y="70.838646"
         x="74.070053"
         style="font-style:normal;font-weight:normal;font-size:10.58333302px;line-height:1.25;font-family:sans-serif;letter-spacing:0px;word-spacing:0px;fill:#000000;fill-opacity:1;stroke:#000000;stroke-width:0.1;stroke-miterlimit:4;stroke-dasharray:none;stroke-opacity:1"
         xml:space="preserve"><tspan
           style="font-style:normal;font-variant:normal;font-weight:bold;font-stretch:normal;font-size:4.93888903px;font-family:Loma;-inkscape-font-specification:'Loma Bold';letter-spacing:0.52916682px;fill:#00006e;fill-opacity:1;stroke:#00006e;stroke-width:0.1;stroke-miterlimit:4;stroke-dasharray:none;stroke-opacity:1"
           y="70.838646"
           x="74.070053"
           id="tspan815-0-6-7-4-5-7-9-0-9"
           sodipodi:role="line">TECHNOLOGIES</tspan></text>
    </g>
    <circle
       style="fill:none;fill-opacity:1;stroke:#000000;stroke-width:0.2;stroke-miterlimit:4;stroke-dasharray:none;stroke-opacity:1"
       id="path1300"
       cx="104.56544"
       cy="59.992104"
       r="38.629166"
       inkscape:export-xdpi="200"
       inkscape:export-ydpi="200" />
    <circle
       style="fill:none;fill-opacity:1;stroke:#000000;stroke-width:0.2;stroke-miterlimit:4;stroke-dasharray:none;stroke-opacity:1"
       id="path1300-5"
       cx="103.45843"
       cy="150.29288"
       r="38.629166"
       inkscape:export-xdpi="200"
       inkscape:export-ydpi="200" />
    <g
       id="g1170"
       transform="translate(8.1851293,7.0158251)">
      <path
         inkscape:export-ydpi="200"
         inkscape:export-xdpi="200"
         id="path30-5-36-3-7-6-6-6-6-6-7-6-8-92"
         d="m 97.739855,113.87034 c -1.408821,0.0861 -1.528501,0.12655 -1.830381,1.11104 l -1.05782,3.50314 c -0.21121,0.62193 -0.32358,0.879 -0.76688,1.09606 -0.48537,0.23477 -0.57037,0.20873 -1.21542,0.41757 -0.49675,0.16518 -0.90849,0.31162 -1.22887,0.37568 -0.48622,0.085 -0.72809,-0.0572 -1.26452,-0.43617 l -2.91507,-2.21226 c -0.82291,-0.61904 -0.94381,-0.58123 -2.13424,0.17725 -0.10672,0.0738 -0.20955,0.15253 -0.31471,0.22894 -0.2016,0.1415 -0.41325,0.29766 -0.58911,0.42786 -0.10516,0.0764 -0.21202,0.15028 -0.31522,0.22894 -1.08927,0.89781 -1.1623,1.00113 -0.82786,1.97506 l 1.20354,3.45562 c 0.19469,0.6273 0.25486,0.9017 0.0238,1.33789 -0.25472,0.47519 -0.33882,0.50406 -0.73794,1.05214 -0.41109,0.57523 -0.408719,0.63429 -0.77308,1.0268 -0.3434,0.35454 -0.622769,0.38198 -1.2795,0.39068 l -3.658698,-0.0765 c -1.02959,-0.0172 -1.10489,0.0846 -1.62212,1.39785 -0.0429,0.12245 -0.0803,0.24643 -0.1204,0.37002 -0.066,0.1923 -0.12773,0.38864 -0.18552,0.57152 h 12.629719 a 12.011274,12.011274 0 0 1 9.732739,-4.99194 12.011274,12.011274 0 0 1 9.728086,4.99194 h 12.63541 c -0.0621,-0.19632 -0.12834,-0.3988 -0.18552,-0.56946 -0.0401,-0.12361 -0.0775,-0.24754 -0.12041,-0.36999 -0.51722,-1.31331 -0.59252,-1.41497 -1.62212,-1.39787 l -3.65869,0.0765 c -0.65676,-0.009 -0.93609,-0.0361 -1.27951,-0.39066 -0.37255,-0.38838 -0.37529,-0.4785 -0.77101,-1.02476 -0.30849,-0.41976 -0.57869,-0.77012 -0.73846,-1.05471 -0.23105,-0.43616 -0.17041,-0.71009 0.0243,-1.33739 l 1.20303,-3.45612 c 0.33439,-0.97374 0.26132,-1.07722 -0.82734,-1.97455 h -0.001 c -0.1029,-0.0786 -0.20916,-0.15217 -0.31411,-0.22842 -0.19691,-0.14801 -0.41091,-0.30088 -0.58912,-0.42788 h -5.3e-4 c -0.10506,-0.0764 -0.20808,-0.15513 -0.3147,-0.22892 h -5.3e-4 c -1.19012,-0.75832 -1.31081,-0.79574 -2.13365,-0.17674 l -2.91455,2.21228 c -0.53643,0.37902 -0.77882,0.5211 -1.26505,0.43614 -0.53041,-0.0954 -0.5841,-0.16621 -1.22782,-0.37621 -0.49978,-0.15832 -0.91952,-0.28202 -1.21648,-0.41857 -0.44328,-0.21706 -0.55567,-0.47413 -0.76686,-1.09606 l -1.05782,-3.50314 c -0.30189,-0.98449 -0.42157,-1.02497 -1.830385,-1.11104 h -5.29e-4 c -0.129699,-0.003 -0.259188,0 -0.38912,0 -0.24629,-0.004 -0.50931,-0.003 -0.728128,0 -0.129932,0 -0.259421,-0.003 -0.38912,0 z"
         style="fill:#00006e;fill-opacity:1;stroke-width:8.94423962;stroke-linecap:round"
         inkscape:connector-curvature="0" />
      <text
         inkscape:export-ydpi="200"
         inkscape:export-xdpi="200"
         id="text817-6-3-0-8-7-2-5-5-0"
         y="157.81783"
         x="67.890991"
         style="font-style:normal;font-weight:normal;font-size:10.58333302px;line-height:1.25;font-family:sans-serif;letter-spacing:0px;word-spacing:0px;fill:#000000;fill-opacity:1;stroke:#000000;stroke-width:0.40000001;stroke-miterlimit:4;stroke-dasharray:none;stroke-opacity:1"
         xml:space="preserve"><tspan
           style="font-style:oblique;font-variant:normal;font-weight:bold;font-stretch:normal;font-size:43.7444458px;font-family:Loma;-inkscape-font-specification:'Loma Bold Oblique';letter-spacing:1.32291663px;fill:#00006e;fill-opacity:1;stroke:#00006e;stroke-width:0.40000001;stroke-miterlimit:4;stroke-dasharray:none;stroke-opacity:1"
           y="157.81783"
           x="67.890991"
           id="tspan815-0-6-7-4-5-7-92-9-2"
           sodipodi:role="line">ng</tspan></text>
      <text
         inkscape:export-ydpi="200"
         inkscape:export-xdpi="200"
         id="text817-6-3-0-8-7-2-0-9-2-3"
         y="166.22377"
         x="69.02459"
         style="font-style:normal;font-weight:normal;font-size:10.58333302px;line-height:1.25;font-family:sans-serif;letter-spacing:0px;word-spacing:0px;fill:#000000;fill-opacity:1;stroke:#000000;stroke-width:0.2;stroke-miterlimit:4;stroke-dasharray:none;stroke-opacity:1"
         xml:space="preserve"><tspan
           style="font-style:oblique;font-variant:normal;font-weight:bold;font-stretch:normal;font-size:7.05555534px;font-family:Loma;-inkscape-font-specification:'Loma Bold Oblique';letter-spacing:0.52916682px;fill:#00006e;fill-opacity:1;stroke:#00006e;stroke-width:0.2;stroke-miterlimit:4;stroke-dasharray:none;stroke-opacity:1"
           y="166.22377"
           x="69.02459"
           id="tspan815-0-6-7-4-5-7-9-73-2-7"
           sodipodi:role="line">TECH</tspan></text>
    </g>
    <g
       id="g1175"
       transform="translate(8.1851293,7.0158251)">
      <path
         inkscape:export-ydpi="200"
         inkscape:export-xdpi="200"
         id="path30-5-36-3-7-6-6-6-6-6-7-6-8-92-36"
         d="m 94.453733,202.65998 c -1.408822,0.0861 -1.528502,0.12655 -1.830382,1.11104 l -1.05782,3.50314 c -0.21121,0.62193 -0.32358,0.879 -0.76688,1.09606 -0.48537,0.23477 -0.57037,0.20873 -1.21542,0.41757 -0.49675,0.16518 -0.90849,0.31162 -1.22887,0.37568 -0.48622,0.085 -0.72809,-0.0572 -1.26452,-0.43617 l -2.91507,-2.21226 c -0.82291,-0.61904 -0.94381,-0.58123 -2.13424,0.17725 -0.10672,0.0738 -0.20955,0.15253 -0.31471,0.22894 -0.2016,0.1415 -0.41325,0.29766 -0.58911,0.42786 -0.10516,0.0764 -0.21202,0.15028 -0.31522,0.22894 -1.08927,0.89781 -1.1623,1.00113 -0.82786,1.97506 l 1.20354,3.45562 c 0.19469,0.6273 0.25486,0.9017 0.0238,1.33789 -0.25472,0.47519 -0.33882,0.50406 -0.73794,1.05214 -0.41109,0.57523 -0.408719,0.63429 -0.77308,1.0268 -0.3434,0.35454 -0.622769,0.38198 -1.2795,0.39068 l -3.658698,-0.0765 c -1.02959,-0.0172 -1.10489,0.0846 -1.622121,1.39785 -0.0429,0.12245 -0.0803,0.24643 -0.1204,0.37002 -0.066,0.1923 -0.12773,0.38864 -0.18552,0.57152 h 12.62972 a 12.011274,12.011274 0 0 1 9.732738,-4.99194 12.011274,12.011274 0 0 1 9.72808,4.99194 h 12.63541 c -0.0621,-0.19632 -0.12834,-0.3988 -0.18552,-0.56946 -0.0401,-0.12361 -0.0775,-0.24754 -0.12041,-0.36999 -0.51722,-1.31331 -0.59252,-1.41497 -1.62212,-1.39787 l -3.65869,0.0765 c -0.65676,-0.009 -0.93609,-0.0361 -1.27951,-0.39066 -0.37255,-0.38838 -0.37529,-0.4785 -0.77101,-1.02476 -0.30849,-0.41976 -0.57869,-0.77012 -0.73846,-1.05471 -0.23104,-0.43616 -0.17041,-0.71009 0.0243,-1.33739 l 1.20303,-3.45612 c 0.33439,-0.97374 0.26132,-1.07722 -0.82734,-1.97455 h -0.001 c -0.10286,-0.0786 -0.20912,-0.15217 -0.31407,-0.22842 -0.19691,-0.14801 -0.41091,-0.30088 -0.58912,-0.42788 h -5.3e-4 c -0.10505,-0.0764 -0.20807,-0.15513 -0.31469,-0.22892 h -5.3e-4 c -1.19016,-0.75832 -1.31085,-0.79574 -2.1337,-0.17674 l -2.91455,2.21228 c -0.53643,0.37902 -0.77882,0.5211 -1.26504,0.43614 -0.53041,-0.0954 -0.5841,-0.16621 -1.22783,-0.37621 -0.49977,-0.15832 -0.919517,-0.28202 -1.21647,-0.41857 -0.443288,-0.21706 -0.55567,-0.47413 -0.766868,-1.09606 l -1.05782,-3.50314 c -0.30189,-0.98449 -0.421561,-1.02497 -1.830379,-1.11104 h -5.3e-4 c -0.129698,-0.003 -0.259188,0 -0.38912,0 -0.24629,-0.004 -0.509309,-0.003 -0.728128,0 -0.129931,0 -0.259421,-0.003 -0.38912,0 z"
         style="fill:#00006e;fill-opacity:1;stroke-width:8.94423962;stroke-linecap:round"
         inkscape:connector-curvature="0" />
      <text
         inkscape:export-ydpi="200"
         inkscape:export-xdpi="200"
         id="text817-6-3-0-8-7-2-5-5-0-7"
         y="246.6075"
         x="64.604866"
         style="font-style:normal;font-weight:normal;font-size:10.58333302px;line-height:1.25;font-family:sans-serif;letter-spacing:0px;word-spacing:0px;fill:#000000;fill-opacity:1;stroke:#000000;stroke-width:0.40000001;stroke-miterlimit:4;stroke-dasharray:none;stroke-opacity:1"
         xml:space="preserve"><tspan
           style="font-style:oblique;font-variant:normal;font-weight:bold;font-stretch:normal;font-size:43.7444458px;font-family:Loma;-inkscape-font-specification:'Loma Bold Oblique';letter-spacing:1.32291663px;fill:#00006e;fill-opacity:1;stroke:#00006e;stroke-width:0.40000001;stroke-miterlimit:4;stroke-dasharray:none;stroke-opacity:1"
           y="246.6075"
           x="64.604866"
           id="tspan815-0-6-7-4-5-7-92-9-2-5"
           sodipodi:role="line">ng</tspan></text>
    </g>
    <circle
       style="fill:none;fill-opacity:1;stroke:#000000;stroke-width:0.2;stroke-miterlimit:4;stroke-dasharray:none;stroke-opacity:1"
       id="path1300-5-3"
       cx="102.1097"
       cy="237.72147"
       r="38.629166"
       inkscape:export-xdpi="200"
       inkscape:export-ydpi="200" />
  </g>
</svg>
